<?xml version="1.0" encoding="UTF-8"?>
<!DOCTYPE svg PUBLIC "-//W3C//DTD SVG 1.1//EN" "http://www.w3.org/Graphics/SVG/1.1/DTD/svg11.dtd">
<!-- Creator: CorelDRAW -->
<svg xmlns="http://www.w3.org/2000/svg" xml:space="preserve" width="8.10081in" height="3.42523in" version="1.1" style="shape-rendering:geometricPrecision; text-rendering:geometricPrecision; image-rendering:optimizeQuality; fill-rule:evenodd; clip-rule:evenodd"
viewBox="0 0 5425.59 2294.08"
 xmlns:xlink="http://www.w3.org/1999/xlink"
 xmlns:xodm="http://www.corel.com/coreldraw/odm/2003">
 <defs>
  <style type="text/css">
   <![CDATA[
    .fil1 {fill:white;fill-rule:nonzero;fill-opacity:0.470588}
    .fil0 {fill:white;fill-opacity:0.509804}
   ]]>
  </style>
 </defs>
 <g id="Camada_x0020_1">
  <metadata id="CorelCorpID_0Corel-Layer"/>
  <g id="_2083562234016">
   <path class="fil0" d="M258.42 1212.87c-211.03,-213.52 -252.8,-476.47 -164.88,-727.83 26.68,-76.3 79.88,-163.2 143.97,-228.01 279.53,-282.67 708,-264.69 955.21,-20.22 282.77,279.63 263.19,707.87 20.15,955.2 -273.7,278.51 -712.01,266.18 -954.45,20.86zm710.42 -78.54c26.56,-5.64 154.23,-92.6 94.74,-114.34 -22.32,-8.16 -55.58,34.09 -75.56,49.38 -32.16,24.61 -60.04,34.1 -19.19,64.96zm-631.97 -502.43c28.88,35.09 96.99,126.03 127.44,144.12l28.34 -18.96c-33.99,-63.16 -69.32,-95.33 -119.15,-155.31 -40.45,-49.15 -70.85,-11.41 -36.63,30.15zm39.18 -73.9c0,0.06 166.03,250.02 167.39,145.47 0.23,-17.96 -65.71,-89.15 -81.25,-108.11 -9.12,-11.13 -35.7,-46.37 -44.54,-53.5 -18.73,-15.11 -42.74,-10.15 -41.6,16.14zm160.94 -268.56c-60.58,0.31 -278.37,186.79 -221.87,225.36 41.88,28.6 48.43,-85.52 191.41,-165.36 35.97,-20.09 56.44,-22.78 30.46,-60.01zm-289.71 456.16c-25.24,71.07 63.53,251.72 151.88,333.2 71.74,66.17 286.31,169.58 303.42,105.4 10.05,-37.72 -58.56,-24.59 -139.75,-56.94 -275.31,-109.7 -256.01,-369.72 -281.01,-391.68 -15.37,-13.51 -27.93,-8.59 -34.54,10.02zm810.56 -299.02c64.73,78.65 99.56,169.28 101.19,265.26 0.5,29.6 -12.97,64.17 15.83,79.86 54.92,11.53 28.06,-136.72 22.28,-163.08 -30.34,-138.61 -113.11,-256.87 -239.02,-325.68 -38.91,-21.27 -136.94,-72.2 -172.32,-37.91 0.15,37.37 22.57,32.9 53.16,40.91 25.77,6.75 48.02,14.47 74.83,27.05 50.67,23.79 103.85,64.75 144.06,113.6zm-776.52 231.04l114.43 139.02c42.51,51.65 89.8,4.36 128.44,44.33l214.22 289.75c38.38,51.76 82.44,84.24 135.47,42.86 95.67,-74.64 -61.05,-196.15 -127.49,-269.51 -39.21,-43.29 -88.4,-92.22 -123.99,-136.5 -23.48,-29.22 -14.91,-38.99 -11.39,-69.55 3.02,-26.14 13.07,-40.47 -10.91,-69.6l-118.52 -143.99c-25.89,-31.45 -66.28,-15.31 -41.36,24.45 41.16,65.66 130.92,129.58 127.56,180.25 -1.41,21.29 -12.67,66.11 -1.31,85.93 44.57,77.78 273,269.72 293.79,339.2 -44.98,74.56 -85.25,-16.2 -150.13,-101.77 -49.07,-64.71 -96.29,-131.55 -145.5,-196.91 -34.47,-45.78 -44.13,-37.66 -83.82,-40.82 -85.55,-6.82 -63.19,-42.95 -167.4,-152.83 -34.26,-36.12 -68.96,-9.09 -32.11,35.68zm819.92 260.43c-51.78,-30.15 -235.72,-317.66 -271.64,-344.17 -30.64,-22.61 -82.95,42.81 -153.94,-88.86 -99.42,-184.39 67.87,-199.17 169.7,-50.99 22.47,32.69 22.86,52.02 13.05,82.48 -13.82,42.89 -0.16,40.49 35.2,79.4 50.5,55.57 100.91,111.3 150.03,167.38 80.43,91.84 134.51,117.26 57.61,154.77zm-295.38 -300.2c53.46,68.95 104.93,140.89 158.07,210.86 50.32,66.25 100.18,169.27 180.22,121.54 101.2,-60.35 -2.87,-151.8 -39.93,-191.38 -289.42,-309.2 -165.43,-186.58 -195.42,-301.68 -17.55,-67.38 -162.45,-226.08 -267.3,-150.54 -72.24,52.05 -45.61,124.82 -11.58,192.12 48.95,96.83 96.55,123.59 175.94,119.08zm-667.46 512.11l56.51 68.66c51.34,29.33 173.06,199.69 460.3,227.55 287.14,27.86 436.91,-115.06 495.46,-134.82l68.66 -56.51c29.33,-51.34 199.69,-173.06 227.55,-460.3 6.63,-68.29 0.87,-159.77 -20.08,-244.2 -39.37,-158.62 -98.37,-202.76 -114.74,-251.26l-56.51 -68.65c-51.32,-29.32 -171.26,-198.73 -460.37,-226.78 -288.73,-28.01 -436.88,114.3 -495.38,134.05l-68.65 56.51c-10.23,17.91 -75.67,83.82 -96.12,112.14 -71.8,99.47 -120.73,237.8 -131.44,348.16 -27.87,287.24 115.91,439.44 134.82,495.46z"/>
   <path class="fil0" d="M1240.63 1227.18l726.49 882.61c27.36,33.25 22.52,83.11 -10.72,110.48 -33.24,27.36 -83.11,22.52 -110.48,-10.72l-726.6 -882.74c-13.76,7.89 -30.04,17.85 -49.02,28.67l732.33 889.71c47.03,57.14 132.27,65.41 189.4,18.38 57.14,-47.03 65.41,-132.26 18.38,-189.4l-732.18 -889.52c-14.3,16.61 -27.23,30.66 -37.6,42.55z"/>
  </g>
  <path class="fil1" d="M1944.83 204.26l0 37.56 -96.43 0 0 316.2 -46.19 0 0 -316.2 -96.94 0 0 -37.56 239.56 0zm194.9 70.55c20.98,0 39.93,4.49 56.85,13.45 16.92,8.97 30.2,22.42 39.84,40.35 9.64,17.93 14.46,39.76 14.46,65.47l0 163.94 -45.68 0 0 -157.34c0,-27.74 -6.94,-48.98 -20.81,-63.7 -13.87,-14.72 -32.82,-22.08 -56.85,-22.08 -24.36,0 -43.73,7.61 -58.11,22.84 -14.38,15.23 -21.57,37.39 -21.57,66.49l0 153.79 -46.19 0 0 -375.58 46.19 0 0 137.04c9.14,-14.21 21.74,-25.21 37.81,-32.99 16.07,-7.78 34.09,-11.68 54.06,-11.68zm440.55 133.49c0,8.8 -0.51,18.1 -1.52,27.91l-222.3 0c1.69,27.41 11.08,48.81 28.17,64.2 17.09,15.4 37.81,23.09 62.18,23.09 19.96,0 36.63,-4.65 49.99,-13.96 13.37,-9.31 22.76,-21.74 28.17,-37.31l49.74 0c-7.44,26.73 -22.33,48.47 -44.66,65.22 -22.33,16.75 -50.08,25.12 -83.24,25.12 -26.39,0 -49.99,-5.92 -70.8,-17.76 -20.81,-11.84 -37.13,-28.68 -48.98,-50.5 -11.84,-21.82 -17.76,-47.12 -17.76,-75.88 0,-28.76 5.75,-53.97 17.26,-75.62 11.5,-21.65 27.66,-38.32 48.47,-49.99 20.81,-11.67 44.75,-17.51 71.82,-17.51 26.39,0 49.74,5.75 70.04,17.26 20.3,11.5 35.95,27.32 46.95,47.46 11,20.13 16.5,42.89 16.5,68.27zm-47.71 -9.65c0,-17.59 -3.89,-32.74 -11.67,-45.42 -7.78,-12.69 -18.36,-22.33 -31.72,-28.93 -13.37,-6.6 -28.17,-9.9 -44.41,-9.9 -23.35,0 -43.23,7.44 -59.64,22.33 -16.41,14.89 -25.8,35.53 -28.17,61.92l175.61 0zm154.8 -73.59c8.12,-15.9 19.71,-28.25 34.77,-37.05 15.06,-8.8 33.41,-13.2 55.07,-13.2l0 47.71 -12.18 0c-51.77,0 -77.66,28.09 -77.66,84.25l0 151.25 -46.19 0 0 -278.14 46.19 0 0 45.17zm396.9 83.24c0,8.8 -0.51,18.1 -1.52,27.91l-222.3 0c1.69,27.41 11.08,48.81 28.17,64.2 17.09,15.4 37.81,23.09 62.18,23.09 19.96,0 36.63,-4.65 49.99,-13.96 13.37,-9.31 22.76,-21.74 28.17,-37.31l49.74 0c-7.44,26.73 -22.33,48.47 -44.66,65.22 -22.33,16.75 -50.08,25.12 -83.24,25.12 -26.39,0 -49.99,-5.92 -70.8,-17.76 -20.81,-11.84 -37.13,-28.68 -48.98,-50.5 -11.84,-21.82 -17.76,-47.12 -17.76,-75.88 0,-28.76 5.75,-53.97 17.26,-75.62 11.5,-21.65 27.66,-38.32 48.47,-49.99 20.81,-11.67 44.75,-17.51 71.82,-17.51 26.39,0 49.74,5.75 70.04,17.26 20.3,11.5 35.95,27.32 46.95,47.46 11,20.13 16.5,42.89 16.5,68.27zm-47.71 -9.65c0,-17.59 -3.89,-32.74 -11.67,-45.42 -7.78,-12.69 -18.36,-22.33 -31.72,-28.93 -13.37,-6.6 -28.17,-9.9 -44.41,-9.9 -23.35,0 -43.23,7.44 -59.64,22.33 -16.41,14.89 -25.8,35.53 -28.17,61.92l175.61 0zm267.99 -163.94c-8.8,0 -16.24,-3.05 -22.33,-9.13 -6.09,-6.09 -9.14,-13.53 -9.14,-22.33 0,-8.8 3.05,-16.24 9.14,-22.33 6.09,-6.09 13.53,-9.14 22.33,-9.14 8.46,0 15.65,3.05 21.57,9.14 5.92,6.09 8.88,13.53 8.88,22.33 0,8.8 -2.96,16.24 -8.88,22.33 -5.92,6.09 -13.11,9.13 -21.57,9.13zm22.33 45.17l0 278.14 -46.19 0 0 -278.14 46.19 0zm177.14 282.7c-21.32,0 -40.44,-3.64 -57.35,-10.91 -16.92,-7.28 -30.28,-17.43 -40.1,-30.45 -9.81,-13.03 -15.23,-28 -16.24,-44.92l47.71 0c1.35,13.87 7.87,25.21 19.54,34.01 11.67,8.8 26.98,13.19 45.93,13.19 17.6,0 31.47,-3.89 41.62,-11.67 10.15,-7.78 15.23,-17.6 15.23,-29.44 0,-12.18 -5.42,-21.23 -16.24,-27.15 -10.83,-5.92 -27.58,-11.76 -50.25,-17.51 -20.64,-5.42 -37.47,-10.91 -50.5,-16.5 -13.03,-5.58 -24.19,-13.87 -33.5,-24.87 -9.31,-11 -13.96,-25.46 -13.96,-43.39 0,-14.21 4.23,-27.24 12.69,-39.08 8.46,-11.84 20.47,-21.23 36.04,-28.17 15.57,-6.94 33.33,-10.4 53.29,-10.4 30.79,0 55.66,7.78 74.61,23.35 18.95,15.57 29.1,36.88 30.45,63.95l-46.19 0c-1.02,-14.55 -6.85,-26.22 -17.51,-35.02 -10.66,-8.8 -24.95,-13.2 -42.89,-13.2 -16.58,0 -29.78,3.55 -39.59,10.66 -9.81,7.11 -14.72,16.41 -14.72,27.92 0,9.14 2.96,16.66 8.88,22.58 5.92,5.92 13.37,10.66 22.33,14.21 8.97,3.55 21.4,7.53 37.3,11.93 19.96,5.41 36.21,10.74 48.73,15.99 12.52,5.24 23.26,13.11 32.23,23.6 8.97,10.49 13.62,24.19 13.96,41.11 0,15.23 -4.23,28.93 -12.69,41.11 -8.46,12.18 -20.39,21.74 -35.78,28.68 -15.39,6.94 -33.07,10.4 -53.04,10.4zm437.51 -287.78c33.84,0 61.24,10.24 82.22,30.71 20.98,20.47 31.47,49.99 31.47,88.57l0 163.94 -45.68 0 0 -157.34c0,-27.74 -6.94,-48.98 -20.81,-63.7 -13.87,-14.72 -32.82,-22.08 -56.85,-22.08 -24.36,0 -43.73,7.61 -58.11,22.84 -14.38,15.23 -21.57,37.39 -21.57,66.49l0 153.79 -46.19 0 0 -278.14 46.19 0 0 39.59c9.14,-14.21 21.57,-25.21 37.31,-32.99 15.73,-7.78 33.07,-11.68 52.02,-11.68zm310.62 287.78c-26.05,0 -49.66,-5.92 -70.8,-17.76 -21.15,-11.84 -37.73,-28.68 -49.74,-50.5 -12.01,-21.82 -18.02,-47.12 -18.02,-75.88 0,-28.42 6.18,-53.55 18.52,-75.37 12.35,-21.82 29.18,-38.57 50.5,-50.25 21.32,-11.67 45.17,-17.51 71.57,-17.51 26.39,0 50.25,5.84 71.56,17.51 21.32,11.67 38.15,28.34 50.5,49.99 12.35,21.66 18.52,46.86 18.52,75.62 0,28.76 -6.34,54.06 -19.03,75.88 -12.69,21.83 -29.86,38.66 -51.52,50.5 -21.65,11.84 -45.68,17.76 -72.07,17.76zm0 -40.6c16.58,0 32.14,-3.89 46.69,-11.67 14.55,-7.78 26.31,-19.46 35.28,-35.02 8.97,-15.57 13.45,-34.51 13.45,-56.85 0,-22.33 -4.4,-41.28 -13.19,-56.85 -8.8,-15.57 -20.3,-27.15 -34.51,-34.77 -14.21,-7.61 -29.61,-11.42 -46.19,-11.42 -16.92,0 -32.4,3.81 -46.44,11.42 -14.04,7.61 -25.29,19.2 -33.75,34.77 -8.46,15.57 -12.69,34.51 -12.69,56.85 0,22.67 4.15,41.79 12.44,57.35 8.29,15.57 19.37,27.15 33.24,34.77 13.87,7.61 29.1,11.42 45.68,11.42zm395.38 -204.03l0 163.94c0,13.53 2.88,23.09 8.63,28.68 5.75,5.58 15.73,8.37 29.95,8.37l34 0 0 39.08 -41.62 0c-25.71,0 -45,-5.92 -57.86,-17.76 -12.86,-11.84 -19.29,-31.3 -19.29,-58.37l0 -163.94 -36.04 0 0 -38.07 36.04 0 0 -70.04 46.19 0 0 70.04 72.58 0 0 38.07 -72.58 0zm266.46 -43.14c20.98,0 39.93,4.49 56.85,13.45 16.92,8.97 30.2,22.42 39.84,40.35 9.64,17.93 14.46,39.76 14.46,65.47l0 163.94 -45.68 0 0 -157.34c0,-27.74 -6.94,-48.98 -20.81,-63.7 -13.87,-14.72 -32.82,-22.08 -56.85,-22.08 -24.36,0 -43.73,7.61 -58.11,22.84 -14.38,15.23 -21.57,37.39 -21.57,66.49l0 153.79 -46.19 0 0 -375.58 46.19 0 0 137.04c9.14,-14.21 21.74,-25.21 37.81,-32.99 16.07,-7.78 34.09,-11.68 54.06,-11.68zm210.63 -40.1c-8.8,0 -16.24,-3.05 -22.33,-9.13 -6.09,-6.09 -9.14,-13.53 -9.14,-22.33 0,-8.8 3.05,-16.24 9.14,-22.33 6.09,-6.09 13.53,-9.14 22.33,-9.14 8.46,0 15.65,3.05 21.57,9.14 5.92,6.09 8.88,13.53 8.88,22.33 0,8.8 -2.96,16.24 -8.88,22.33 -5.92,6.09 -13.11,9.13 -21.57,9.13zm22.33 45.17l0 278.14 -46.19 0 0 -278.14 46.19 0zm177.14 282.7c-21.32,0 -40.44,-3.64 -57.35,-10.91 -16.92,-7.28 -30.28,-17.43 -40.1,-30.45 -9.81,-13.03 -15.23,-28 -16.24,-44.92l47.71 0c1.35,13.87 7.87,25.21 19.54,34.01 11.67,8.8 26.98,13.19 45.93,13.19 17.6,0 31.47,-3.89 41.62,-11.67 10.15,-7.78 15.23,-17.6 15.23,-29.44 0,-12.18 -5.42,-21.23 -16.24,-27.15 -10.83,-5.92 -27.58,-11.76 -50.25,-17.51 -20.64,-5.42 -37.47,-10.91 -50.5,-16.5 -13.03,-5.58 -24.19,-13.87 -33.5,-24.87 -9.31,-11 -13.96,-25.46 -13.96,-43.39 0,-14.21 4.23,-27.24 12.69,-39.08 8.46,-11.84 20.47,-21.23 36.04,-28.17 15.57,-6.94 33.33,-10.4 53.29,-10.4 30.79,0 55.66,7.78 74.61,23.35 18.95,15.57 29.1,36.88 30.45,63.95l-46.19 0c-1.02,-14.55 -6.85,-26.22 -17.51,-35.02 -10.66,-8.8 -24.95,-13.2 -42.89,-13.2 -16.58,0 -29.78,3.55 -39.59,10.66 -9.81,7.11 -14.72,16.41 -14.72,27.92 0,9.14 2.96,16.66 8.88,22.58 5.92,5.92 13.37,10.66 22.33,14.21 8.97,3.55 21.4,7.53 37.3,11.93 19.96,5.41 36.21,10.74 48.73,15.99 12.52,5.24 23.26,13.11 32.23,23.6 8.97,10.49 13.62,24.19 13.96,41.11 0,15.23 -4.23,28.93 -12.69,41.11 -8.46,12.18 -20.39,21.74 -35.78,28.68 -15.39,6.94 -33.07,10.4 -53.04,10.4z"/>
  <path class="fil1" d="M1799.17 948.17c0,-28.42 5.75,-53.38 17.26,-74.87 11.5,-21.49 27.32,-38.15 47.46,-49.99 20.13,-11.84 42.72,-17.76 67.76,-17.76 21.65,0 41.79,4.99 60.4,14.97 18.61,9.98 32.82,23.09 42.64,39.34l0 -147.19 46.69 0 0 375.58 -46.69 0 0 -52.28c-9.14,16.58 -22.67,30.2 -40.6,40.86 -17.93,10.66 -38.91,15.99 -62.94,15.99 -24.7,0 -47.12,-6.09 -67.25,-18.27 -20.13,-12.18 -35.95,-29.27 -47.46,-51.26 -11.5,-21.99 -17.26,-47.03 -17.26,-75.12zm235.5 0.51c0,-20.98 -4.23,-39.25 -12.69,-54.81 -8.46,-15.57 -19.88,-27.49 -34.26,-35.78 -14.38,-8.29 -30.2,-12.44 -47.46,-12.44 -17.26,0 -32.99,4.06 -47.2,12.18 -14.21,8.12 -25.55,19.96 -34,35.53 -8.46,15.56 -12.69,33.84 -12.69,54.81 0,21.32 4.23,39.84 12.69,55.58 8.46,15.73 19.79,27.74 34,36.04 14.21,8.29 29.95,12.44 47.2,12.44 17.26,0 33.08,-4.15 47.46,-12.44 14.38,-8.29 25.8,-20.3 34.26,-36.04 8.46,-15.73 12.69,-34.09 12.69,-55.07zm148.71 -183.73c-8.8,0 -16.24,-3.05 -22.33,-9.13 -6.09,-6.09 -9.14,-13.53 -9.14,-22.33 0,-8.8 3.05,-16.24 9.14,-22.33 6.09,-6.09 13.53,-9.14 22.33,-9.14 8.46,0 15.65,3.05 21.57,9.14 5.92,6.09 8.88,13.53 8.88,22.33 0,8.8 -2.96,16.24 -8.88,22.33 -5.92,6.09 -13.11,9.13 -21.57,9.13zm22.33 45.17l0 278.14 -46.19 0 0 -278.14 46.19 0zm177.14 282.7c-21.32,0 -40.44,-3.64 -57.35,-10.91 -16.92,-7.28 -30.28,-17.43 -40.1,-30.45 -9.81,-13.03 -15.23,-28 -16.24,-44.92l47.71 0c1.35,13.87 7.87,25.21 19.54,34.01 11.67,8.8 26.98,13.19 45.93,13.19 17.6,0 31.47,-3.89 41.62,-11.67 10.15,-7.78 15.23,-17.6 15.23,-29.44 0,-12.18 -5.42,-21.23 -16.24,-27.15 -10.83,-5.92 -27.58,-11.76 -50.25,-17.51 -20.64,-5.42 -37.47,-10.91 -50.5,-16.5 -13.03,-5.58 -24.19,-13.87 -33.5,-24.87 -9.31,-11 -13.96,-25.46 -13.96,-43.39 0,-14.21 4.23,-27.24 12.69,-39.08 8.46,-11.84 20.47,-21.23 36.04,-28.17 15.57,-6.94 33.33,-10.4 53.29,-10.4 30.79,0 55.66,7.78 74.61,23.35 18.95,15.57 29.1,36.88 30.45,63.95l-46.19 0c-1.02,-14.55 -6.85,-26.22 -17.51,-35.02 -10.66,-8.8 -24.95,-13.2 -42.89,-13.2 -16.58,0 -29.78,3.55 -39.59,10.66 -9.81,7.11 -14.72,16.41 -14.72,27.92 0,9.14 2.96,16.66 8.88,22.58 5.92,5.92 13.37,10.66 22.33,14.21 8.97,3.55 21.4,7.53 37.3,11.93 19.96,5.41 36.21,10.74 48.73,15.99 12.52,5.24 23.26,13.11 32.23,23.6 8.97,10.49 13.62,24.19 13.96,41.11 0,15.23 -4.23,28.93 -12.69,41.11 -8.46,12.18 -20.39,21.74 -35.78,28.68 -15.39,6.94 -33.07,10.4 -53.04,10.4zm304.53 -287.78c20.98,0 39.93,4.49 56.85,13.45 16.92,8.97 30.2,22.42 39.84,40.35 9.64,17.93 14.46,39.76 14.46,65.47l0 163.94 -45.68 0 0 -157.34c0,-27.74 -6.94,-48.98 -20.81,-63.7 -13.87,-14.72 -32.82,-22.08 -56.85,-22.08 -24.36,0 -43.73,7.61 -58.11,22.84 -14.38,15.23 -21.57,37.39 -21.57,66.49l0 153.79 -46.19 0 0 -375.58 46.19 0 0 137.04c9.14,-14.21 21.74,-25.21 37.81,-32.99 16.07,-7.78 34.09,-11.68 54.06,-11.68zm460.35 0c20.98,0 39.93,4.49 56.85,13.45 16.92,8.97 30.2,22.42 39.84,40.35 9.64,17.93 14.46,39.76 14.46,65.47l0 163.94 -45.68 0 0 -157.34c0,-27.74 -6.94,-48.98 -20.81,-63.7 -13.87,-14.72 -32.82,-22.08 -56.85,-22.08 -24.36,0 -43.73,7.61 -58.11,22.84 -14.38,15.23 -21.57,37.39 -21.57,66.49l0 153.79 -46.19 0 0 -375.58 46.19 0 0 137.04c9.14,-14.21 21.74,-25.21 37.81,-32.99 16.07,-7.78 34.09,-11.68 54.06,-11.68zm440.55 133.49c0,8.8 -0.51,18.1 -1.52,27.91l-222.3 0c1.69,27.41 11.08,48.81 28.17,64.2 17.09,15.4 37.81,23.09 62.18,23.09 19.96,0 36.63,-4.65 49.99,-13.96 13.37,-9.31 22.76,-21.74 28.17,-37.31l49.74 0c-7.44,26.73 -22.33,48.47 -44.66,65.22 -22.33,16.75 -50.08,25.12 -83.24,25.12 -26.39,0 -49.99,-5.92 -70.8,-17.76 -20.81,-11.84 -37.13,-28.68 -48.98,-50.5 -11.84,-21.82 -17.76,-47.12 -17.76,-75.88 0,-28.76 5.75,-53.97 17.26,-75.62 11.5,-21.65 27.66,-38.32 48.47,-49.99 20.81,-11.67 44.75,-17.51 71.82,-17.51 26.39,0 49.74,5.75 70.04,17.26 20.3,11.5 35.95,27.32 46.95,47.46 11,20.13 16.5,42.89 16.5,68.27zm-47.71 -9.65c0,-17.59 -3.89,-32.74 -11.67,-45.42 -7.78,-12.69 -18.36,-22.33 -31.72,-28.93 -13.37,-6.6 -28.17,-9.9 -44.41,-9.9 -23.35,0 -43.23,7.44 -59.64,22.33 -16.41,14.89 -25.8,35.53 -28.17,61.92l175.61 0zm154.8 -73.59c8.12,-15.9 19.71,-28.25 34.77,-37.05 15.06,-8.8 33.41,-13.2 55.07,-13.2l0 47.71 -12.18 0c-51.77,0 -77.66,28.09 -77.66,84.25l0 151.25 -46.19 0 0 -278.14 46.19 0 0 45.17zm396.9 83.24c0,8.8 -0.51,18.1 -1.52,27.91l-222.3 0c1.69,27.41 11.08,48.81 28.17,64.2 17.09,15.4 37.81,23.09 62.18,23.09 19.96,0 36.63,-4.65 49.99,-13.96 13.37,-9.31 22.76,-21.74 28.17,-37.31l49.74 0c-7.44,26.73 -22.33,48.47 -44.66,65.22 -22.33,16.75 -50.08,25.12 -83.24,25.12 -26.39,0 -49.99,-5.92 -70.8,-17.76 -20.81,-11.84 -37.13,-28.68 -48.98,-50.5 -11.84,-21.82 -17.76,-47.12 -17.76,-75.88 0,-28.76 5.75,-53.97 17.26,-75.62 11.5,-21.65 27.66,-38.32 48.47,-49.99 20.81,-11.67 44.75,-17.51 71.82,-17.51 26.39,0 49.74,5.75 70.04,17.26 20.3,11.5 35.95,27.32 46.95,47.46 11,20.13 16.5,42.89 16.5,68.27zm-47.71 -9.65c0,-17.59 -3.89,-32.74 -11.67,-45.42 -7.78,-12.69 -18.36,-22.33 -31.72,-28.93 -13.37,-6.6 -28.17,-9.9 -44.41,-9.9 -23.35,0 -43.23,7.44 -59.64,22.33 -16.41,14.89 -25.8,35.53 -28.17,61.92l175.61 0zm168.5 -194.39l-5.58 253.78 -38.57 0 -5.58 -253.78 49.74 0zm-22.84 356.81c-8.8,0 -16.24,-3.05 -22.33,-9.14 -6.09,-6.09 -9.13,-13.53 -9.13,-22.33 0,-8.8 3.04,-16.24 9.13,-22.33 6.09,-6.09 13.53,-9.14 22.33,-9.14 8.46,0 15.65,3.05 21.57,9.14 5.92,6.09 8.88,13.53 8.88,22.33 0,8.8 -2.96,16.24 -8.88,22.33 -5.92,6.09 -13.11,9.14 -21.57,9.14z"/>
 </g>
</svg>
