<svg width="405" height="299" viewBox="0 0 405 299" fill="none" xmlns="http://www.w3.org/2000/svg">
<g filter="url(#filter0_d_4252_1277)">
<path fill-rule="evenodd" clip-rule="evenodd" d="M214.497 224.219C218.281 219.508 225.618 215.571 229.759 211.701C234.15 207.598 237.192 200.78 242.06 197.541C252.121 190.844 274.795 182.734 269.501 203.578C268.118 208.402 255.22 201.336 247.681 215.727C246.161 219.246 238.153 211.605 233.023 215.322C226.03 223.333 211.632 229.07 214.498 224.219H214.497ZM116.53 143.87C121.114 143.87 124.831 147.586 124.831 152.171C124.831 156.756 121.114 160.472 116.53 160.472C111.945 160.472 108.229 156.756 108.229 152.171C108.229 147.586 111.945 143.87 116.53 143.87ZM135.306 93.0756C139.891 93.0756 143.608 96.7922 143.608 101.377C143.608 105.961 139.891 109.678 135.306 109.678C130.722 109.678 127.005 105.961 127.005 101.377C127.005 96.7922 130.722 93.0756 135.306 93.0756ZM123.175 116.729C127.76 116.729 131.476 120.446 131.476 125.031C131.476 129.615 127.76 133.332 123.175 133.332C118.591 133.332 114.874 129.615 114.874 125.031C114.874 120.446 118.591 116.729 123.175 116.729ZM110.662 170.728C117.834 171.345 121.7 171.981 126.681 168.509C132.002 186.674 132.493 199.31 143.415 211.78C152.63 222.302 164.672 232.769 185.739 231.887C204.611 231.098 195.388 231.009 210.335 236.739C226.5 242.937 230.897 232.11 243.828 229.21C249.628 227.91 251.159 228.391 255.377 224.945C262.06 219.487 257.4 220.215 263.921 217.795C268.009 216.279 271.482 216.153 275.517 214.384C269.629 225.737 253.068 237.62 237.619 244.28C187.064 266.075 120.399 236.467 110.662 170.727V170.728ZM273.201 177.39C286.568 171.181 289.154 148.475 290.671 130.985C298.257 159.455 296.537 179.216 283.496 202.58C283.727 183.547 278.052 187.525 273.201 177.389V177.39ZM195.988 75.0483C236.344 65.8177 275.363 97.9548 277.397 132.435C280.18 179.624 238.505 179.543 229.983 190.783C224.781 197.643 219.934 203.508 212.731 208.786C196.781 220.471 177.708 222.596 160.433 210.629C124.855 185.984 136.65 88.6211 195.989 75.0483H195.988ZM147.163 84.7504C152.111 79.6433 160.806 75.2252 167.772 73.0417L150.962 89.5307C149.695 87.9373 148.43 86.3439 147.163 84.7504ZM103.92 134.606C96.4532 143.424 94.0584 151.278 97.5367 171.193C107.748 258.817 212.519 291.048 270.455 239.982C285.33 226.871 295.299 213.321 302.599 192.764C339.41 89.1071 211.135 8.80698 132.794 79.4206C122.613 84.1895 115.646 86.5541 115.023 107.081C103.348 116.196 102.248 123.886 103.92 134.606Z" fill="#FFFAF1" fill-opacity="0.3"/>
<path fill-rule="evenodd" clip-rule="evenodd" d="M188.656 40.5611C257.121 30.7466 312.342 83.9272 320.776 141.648C331.101 212.31 278.537 268.2 219.102 276.66C147.208 286.894 92.2684 233.574 84.3158 174.268C75.5868 109.175 119.272 50.5068 188.656 40.5601V40.5611ZM71.9119 178.264C82.405 244.05 142.031 300.659 221.125 289.493C287.034 280.19 344.878 218.278 333.353 139.808C323.626 73.5798 262.306 16.3589 183.451 27.9302C118.027 37.5304 59.358 99.5576 71.9129 178.264H71.9119Z" fill="#FFFAF1" fill-opacity="0.3"/>
<path fill-rule="evenodd" clip-rule="evenodd" d="M30.1995 260.426C26.9065 246.083 29.6156 183.643 30.9697 171.617L43.5818 172.209C44.7225 187.256 43.8743 205.239 43.8743 220.611C43.8743 231.71 45.7008 253.539 42.6368 261.503C41.0694 265.577 31.4287 265.79 30.1985 260.426H30.1995ZM10.5579 13.0461C14.1642 13.0461 17.1148 15.9967 17.1148 19.603V22.6483C17.1513 23.2436 17.1762 23.8774 17.1929 24.5529C17.3167 29.763 17.1981 35.1095 17.1148 40.4654V52.2449L30.2744 52.9006C30.4004 49.7449 30.4763 46.2177 30.5971 42.5937V19.6196C30.5971 16.004 33.556 13.045 37.1717 13.045C40.7884 13.045 43.7463 16.0029 43.7463 19.6196V29.4508C44.0668 33.6857 43.8951 38.1007 43.7463 42.627V52.172L56.5343 52.8777C56.5249 52.7299 56.5197 52.581 56.5197 52.4301V20.0828C56.5197 16.2111 59.6868 13.044 63.5585 13.044C67.4302 13.044 70.5973 16.2111 70.5973 20.0828V29.6277C70.8616 34.332 70.7732 39.4641 70.5973 44.5109V52.4291C70.5973 53.2492 70.4547 54.0371 70.1945 54.7708C70.105 57.2697 70.0436 59.6438 70.0509 61.8117C70.1237 83.2611 69.3973 87.6219 56.8996 98.0984L56.68 259.311C54.8992 274.879 36.9843 284.346 24.1411 272.793C14.0914 263.753 17.4625 241.449 17.4625 225.903L17.4666 118.262C17.5166 106.808 19.4795 102.634 13.9405 96.0148C7.14627 91.1575 5.06784 86.4563 4 78.2091V19.6009C4 15.9935 6.9506 13.044 10.5569 13.044L10.5579 13.0461ZM43.8077 105.311L43.79 158.414L30.492 158.732L30.443 105.237L43.8077 105.311ZM56.3522 65.9217C60.8827 101.97 14.4796 101.328 17.3063 65.9498L56.3522 65.9217ZM388.001 252.371C388.001 264.924 382.501 275.428 369.154 270.211C359.022 266.25 361.096 252.918 361.123 240.025C361.149 227.883 356.201 171.705 369.239 171.705H379.826C392.385 171.705 388.001 237.522 388.001 252.371ZM367.894 158.435C367.757 148.786 369.062 145.794 364.787 138.588C350.349 114.256 354.498 131.812 354.498 79.455C354.498 49.3473 351.437 18.1459 381.238 14.1628L381.172 158.632L367.895 158.434L367.894 158.435ZM400.999 260.667V184.95C401.057 179.432 397.088 172.898 395.98 164.351C389.803 116.734 399.268 23.8587 392.999 1.11043C376.787 -3.13802 362.244 6.77538 354.094 14.9195C342.715 26.29 341.485 37.1817 341.53 56.4912C341.574 74.7267 341.645 93.0069 341.531 111.238C341.463 122.231 339.855 125.184 345.379 133.255C357.692 151.244 357.67 151.52 350.872 174.072C348.762 181.078 348.174 189.255 348.1 197.638C347.944 215.247 348.022 233.038 348.079 250.656C348.13 266.285 352.122 280.819 369.731 283.796C389.648 287.163 400.579 271.543 400.998 260.666L400.999 260.667ZM250.176 165.695C250.926 157.547 222.693 146.856 209.717 140.159C186.458 128.155 174.561 116.575 167.17 127.097C170.099 138.792 189.733 144.088 207.174 153.352C215.339 157.69 248.817 180.463 250.176 165.695ZM217.323 128.985C225.398 133.313 231.605 136.165 239.703 140.275C247.769 144.368 252.554 149.987 261.043 145.974C264.225 134.409 255.529 134.17 245.656 128.945C238.274 125.038 231.329 121.125 223.822 117.315C209.233 109.911 184.728 93.825 179.941 101.945C174.403 111.34 199.643 119.508 217.323 128.985ZM220.213 178.8C219.308 172.881 210.783 170.438 205.353 167.535C192.519 160.673 150.821 134.695 154.852 153.561C155.253 155.438 223.494 200.251 220.214 178.8H220.213Z" fill="#FFFAF1" fill-opacity="0.3"/>
<path fill-rule="evenodd" clip-rule="evenodd" d="M210.528 86.5135C201.55 95.3289 222.11 101.406 227.942 104.388C234.042 107.507 249.041 119.346 255.03 113.359C263.652 104.74 242.837 97.7258 237.349 94.8782C231.162 91.6685 216.291 80.8548 210.529 86.5125L210.528 86.5135ZM154.621 183.558C155.409 187.169 202.869 215.847 195.744 195.048C194.266 190.734 150.17 163.188 154.621 183.558Z" fill="#FFFAF1" fill-opacity="0.3"/>
</g>
<defs>
<filter id="filter0_d_4252_1277" x="0" y="0.0925446" width="405" height="298.815" filterUnits="userSpaceOnUse" color-interpolation-filters="sRGB">
<feFlood flood-opacity="0" result="BackgroundImageFix"/>
<feColorMatrix in="SourceAlpha" type="matrix" values="0 0 0 0 0 0 0 0 0 0 0 0 0 0 0 0 0 0 127 0" result="hardAlpha"/>
<feOffset dy="4"/>
<feGaussianBlur stdDeviation="2"/>
<feComposite in2="hardAlpha" operator="out"/>
<feColorMatrix type="matrix" values="0 0 0 0 0 0 0 0 0 0 0 0 0 0 0 0 0 0 0.25 0"/>
<feBlend mode="normal" in2="BackgroundImageFix" result="effect1_dropShadow_4252_1277"/>
<feBlend mode="normal" in="SourceGraphic" in2="effect1_dropShadow_4252_1277" result="shape"/>
</filter>
</defs>
</svg>
