<svg width="745" height="413" viewBox="0 0 745 413" fill="none" xmlns="http://www.w3.org/2000/svg">
<path d="M12.3757 242.54V212.266L88.2812 92.6818H114.382V134.585H98.9347L51.0831 210.313V211.734H158.949V242.54H12.3757ZM99.6449 274.5V233.307L100.355 219.901V92.6818H136.399V274.5H99.6449ZM255.85 278.495C240.581 278.436 227.441 274.678 216.433 267.22C205.484 259.763 197.05 248.961 191.131 234.816C185.272 220.671 182.372 203.655 182.431 183.768C182.431 163.941 185.36 147.044 191.22 133.076C197.138 119.108 205.572 108.484 216.522 101.205C227.53 93.8655 240.64 90.196 255.85 90.196C271.061 90.196 284.141 93.8655 295.091 101.205C306.099 108.544 314.563 119.197 320.481 133.165C326.4 147.073 329.329 163.941 329.27 183.768C329.27 203.714 326.311 220.759 320.392 234.905C314.533 249.05 306.129 259.852 295.179 267.309C284.23 274.766 271.12 278.495 255.85 278.495ZM255.85 246.624C266.267 246.624 274.583 241.386 280.797 230.91C287.012 220.434 290.089 204.72 290.03 183.768C290.03 169.978 288.61 158.496 285.769 149.322C282.987 140.149 279.022 133.254 273.873 128.637C268.783 124.021 262.775 121.712 255.85 121.712C245.493 121.712 237.207 126.891 230.993 137.249C224.778 147.606 221.641 163.113 221.582 183.768C221.582 197.736 222.973 209.396 225.755 218.747C228.596 228.039 232.591 235.023 237.74 239.699C242.889 244.315 248.926 246.624 255.85 246.624ZM353.928 242.54V212.266L429.834 92.6818H455.935V134.585H440.487L392.636 210.313V211.734H500.502V242.54H353.928ZM441.198 274.5V233.307L441.908 219.901V92.6818H477.952V274.5H441.198Z" fill="#065E7C"/>
<path d="M77.2108 353.884C77.2108 355.015 76.9441 356.081 76.4108 357.084C75.8775 358.087 75.0241 358.908 73.8508 359.548C72.6775 360.167 71.1735 360.476 69.3388 360.476H65.3068V369.5H61.6588V347.26H69.3388C71.0455 347.26 72.4855 347.559 73.6588 348.156C74.8535 348.732 75.7388 349.521 76.3148 350.524C76.9121 351.527 77.2108 352.647 77.2108 353.884ZM69.3388 357.5C70.7255 357.5 71.7601 357.191 72.4428 356.572C73.1255 355.932 73.4668 355.036 73.4668 353.884C73.4668 351.452 72.0908 350.236 69.3388 350.236H65.3068V357.5H69.3388ZM79.474 360.604C79.474 358.833 79.8367 357.265 80.562 355.9C81.3087 354.535 82.3114 353.479 83.57 352.732C84.85 351.964 86.258 351.58 87.794 351.58C89.1807 351.58 90.386 351.857 91.41 352.412C92.4554 352.945 93.2874 353.617 93.906 354.428V351.868H97.586V369.5H93.906V366.876C93.2874 367.708 92.4447 368.401 91.378 368.956C90.3114 369.511 89.0954 369.788 87.73 369.788C86.2154 369.788 84.8287 369.404 83.57 368.636C82.3114 367.847 81.3087 366.759 80.562 365.372C79.8367 363.964 79.474 362.375 79.474 360.604ZM93.906 360.668C93.906 359.452 93.65 358.396 93.138 357.5C92.6474 356.604 91.9967 355.921 91.186 355.452C90.3754 354.983 89.5007 354.748 88.562 354.748C87.6234 354.748 86.7487 354.983 85.938 355.452C85.1274 355.9 84.466 356.572 83.954 357.468C83.4634 358.343 83.218 359.388 83.218 360.604C83.218 361.82 83.4634 362.887 83.954 363.804C84.466 364.721 85.1274 365.425 85.938 365.916C86.77 366.385 87.6447 366.62 88.562 366.62C89.5007 366.62 90.3754 366.385 91.186 365.916C91.9967 365.447 92.6474 364.764 93.138 363.868C93.65 362.951 93.906 361.884 93.906 360.668ZM92.434 347.132L85.362 350.62V347.932L92.434 344.028V347.132ZM109.482 351.58C110.847 351.58 112.052 351.857 113.098 352.412C114.164 352.945 114.996 353.617 115.594 354.428V351.868H119.274V369.788C119.274 371.409 118.932 372.849 118.25 374.108C117.567 375.388 116.575 376.391 115.274 377.116C113.994 377.841 112.458 378.204 110.666 378.204C108.276 378.204 106.292 377.639 104.714 376.508C103.135 375.399 102.239 373.884 102.026 371.964H105.642C105.919 372.881 106.506 373.617 107.402 374.172C108.319 374.748 109.407 375.036 110.666 375.036C112.138 375.036 113.322 374.588 114.218 373.692C115.135 372.796 115.594 371.495 115.594 369.788V366.844C114.975 367.676 114.132 368.38 113.066 368.956C112.02 369.511 110.826 369.788 109.482 369.788C107.946 369.788 106.538 369.404 105.258 368.636C103.999 367.847 102.996 366.759 102.25 365.372C101.524 363.964 101.162 362.375 101.162 360.604C101.162 358.833 101.524 357.265 102.25 355.9C102.996 354.535 103.999 353.479 105.258 352.732C106.538 351.964 107.946 351.58 109.482 351.58ZM115.594 360.668C115.594 359.452 115.338 358.396 114.826 357.5C114.335 356.604 113.684 355.921 112.874 355.452C112.063 354.983 111.188 354.748 110.25 354.748C109.311 354.748 108.436 354.983 107.626 355.452C106.815 355.9 106.154 356.572 105.642 357.468C105.151 358.343 104.906 359.388 104.906 360.604C104.906 361.82 105.151 362.887 105.642 363.804C106.154 364.721 106.815 365.425 107.626 365.916C108.458 366.385 109.332 366.62 110.25 366.62C111.188 366.62 112.063 366.385 112.874 365.916C113.684 365.447 114.335 364.764 114.826 363.868C115.338 362.951 115.594 361.884 115.594 360.668ZM125.921 349.532C125.26 349.532 124.705 349.308 124.257 348.86C123.809 348.412 123.585 347.857 123.585 347.196C123.585 346.535 123.809 345.98 124.257 345.532C124.705 345.084 125.26 344.86 125.921 344.86C126.561 344.86 127.105 345.084 127.553 345.532C128.001 345.98 128.225 346.535 128.225 347.196C128.225 347.857 128.001 348.412 127.553 348.86C127.105 349.308 126.561 349.532 125.921 349.532ZM127.713 351.868V369.5H124.065V351.868H127.713ZM141.399 351.58C142.785 351.58 144.023 351.868 145.111 352.444C146.22 353.02 147.084 353.873 147.703 355.004C148.321 356.135 148.631 357.5 148.631 359.1V369.5H145.015V359.644C145.015 358.065 144.62 356.86 143.831 356.028C143.041 355.175 141.964 354.748 140.599 354.748C139.233 354.748 138.145 355.175 137.335 356.028C136.545 356.86 136.151 358.065 136.151 359.644V369.5H132.503V351.868H136.151V353.884C136.748 353.159 137.505 352.593 138.423 352.188C139.361 351.783 140.353 351.58 141.399 351.58ZM152.068 360.604C152.068 358.833 152.43 357.265 153.156 355.9C153.902 354.535 154.905 353.479 156.164 352.732C157.444 351.964 158.852 351.58 160.388 351.58C161.774 351.58 162.98 351.857 164.004 352.412C165.049 352.945 165.881 353.617 166.5 354.428V351.868H170.18V369.5H166.5V366.876C165.881 367.708 165.038 368.401 163.972 368.956C162.905 369.511 161.689 369.788 160.324 369.788C158.809 369.788 157.422 369.404 156.164 368.636C154.905 367.847 153.902 366.759 153.156 365.372C152.43 363.964 152.068 362.375 152.068 360.604ZM166.5 360.668C166.5 359.452 166.244 358.396 165.732 357.5C165.241 356.604 164.59 355.921 163.78 355.452C162.969 354.983 162.094 354.748 161.156 354.748C160.217 354.748 159.342 354.983 158.532 355.452C157.721 355.9 157.06 356.572 156.548 357.468C156.057 358.343 155.812 359.388 155.812 360.604C155.812 361.82 156.057 362.887 156.548 363.804C157.06 364.721 157.721 365.425 158.532 365.916C159.364 366.385 160.238 366.62 161.156 366.62C162.094 366.62 162.969 366.385 163.78 365.916C164.59 365.447 165.241 364.764 165.732 363.868C166.244 362.951 166.5 361.884 166.5 360.668ZM192.18 351.58C193.566 351.58 194.804 351.868 195.892 352.444C197.001 353.02 197.865 353.873 198.484 355.004C199.102 356.135 199.412 357.5 199.412 359.1V369.5H195.796V359.644C195.796 358.065 195.401 356.86 194.612 356.028C193.822 355.175 192.745 354.748 191.38 354.748C190.014 354.748 188.926 355.175 188.116 356.028C187.326 356.86 186.932 358.065 186.932 359.644V369.5H183.284V351.868H186.932V353.884C187.529 353.159 188.286 352.593 189.204 352.188C190.142 351.783 191.134 351.58 192.18 351.58ZM202.849 360.604C202.849 358.833 203.212 357.265 203.937 355.9C204.684 354.535 205.686 353.479 206.945 352.732C208.225 351.964 209.633 351.58 211.169 351.58C212.556 351.58 213.761 351.857 214.785 352.412C215.83 352.945 216.662 353.617 217.281 354.428V351.868H220.961V369.5H217.281V366.876C216.662 367.708 215.82 368.401 214.753 368.956C213.686 369.511 212.47 369.788 211.105 369.788C209.59 369.788 208.204 369.404 206.945 368.636C205.686 367.847 204.684 366.759 203.937 365.372C203.212 363.964 202.849 362.375 202.849 360.604ZM217.281 360.668C217.281 359.452 217.025 358.396 216.513 357.5C216.022 356.604 215.372 355.921 214.561 355.452C213.75 354.983 212.876 354.748 211.937 354.748C210.998 354.748 210.124 354.983 209.313 355.452C208.502 355.9 207.841 356.572 207.329 357.468C206.838 358.343 206.593 359.388 206.593 360.604C206.593 361.82 206.838 362.887 207.329 363.804C207.841 364.721 208.502 365.425 209.313 365.916C210.145 366.385 211.02 366.62 211.937 366.62C212.876 366.62 213.75 366.385 214.561 365.916C215.372 365.447 216.022 364.764 216.513 363.868C217.025 362.951 217.281 361.884 217.281 360.668ZM207.297 350.044C207.468 348.807 207.873 347.879 208.513 347.26C209.153 346.62 209.953 346.3 210.913 346.3C211.318 346.3 211.67 346.364 211.969 346.492C212.268 346.62 212.63 346.812 213.057 347.068C213.377 347.281 213.644 347.441 213.857 347.548C214.092 347.655 214.348 347.708 214.625 347.708C214.988 347.708 215.286 347.601 215.521 347.388C215.777 347.153 215.937 346.812 216.001 346.364H218.049C217.878 347.601 217.473 348.54 216.833 349.18C216.193 349.799 215.393 350.108 214.433 350.108C214.028 350.108 213.665 350.044 213.345 349.916C213.025 349.767 212.673 349.564 212.289 349.308C211.905 349.073 211.606 348.913 211.393 348.828C211.201 348.721 210.977 348.668 210.721 348.668C210.358 348.668 210.049 348.785 209.793 349.02C209.558 349.255 209.409 349.596 209.345 350.044H207.297ZM233.401 369.788C231.737 369.788 230.233 369.415 228.889 368.668C227.545 367.9 226.489 366.833 225.721 365.468C224.953 364.081 224.569 362.481 224.569 360.668C224.569 358.876 224.963 357.287 225.753 355.9C226.542 354.513 227.619 353.447 228.985 352.7C230.35 351.953 231.875 351.58 233.561 351.58C235.246 351.58 236.771 351.953 238.137 352.7C239.502 353.447 240.579 354.513 241.369 355.9C242.158 357.287 242.553 358.876 242.553 360.668C242.553 362.46 242.147 364.049 241.337 365.436C240.526 366.823 239.417 367.9 238.009 368.668C236.622 369.415 235.086 369.788 233.401 369.788ZM233.401 366.62C234.339 366.62 235.214 366.396 236.025 365.948C236.857 365.5 237.529 364.828 238.041 363.932C238.553 363.036 238.809 361.948 238.809 360.668C238.809 359.388 238.563 358.311 238.073 357.436C237.582 356.54 236.931 355.868 236.121 355.42C235.31 354.972 234.435 354.748 233.497 354.748C232.558 354.748 231.683 354.972 230.873 355.42C230.083 355.868 229.454 356.54 228.985 357.436C228.515 358.311 228.281 359.388 228.281 360.668C228.281 362.567 228.761 364.039 229.721 365.084C230.702 366.108 231.929 366.62 233.401 366.62ZM270.631 360.252C270.631 360.913 270.589 361.511 270.503 362.044H257.031C257.138 363.452 257.661 364.583 258.599 365.436C259.538 366.289 260.69 366.716 262.055 366.716C264.018 366.716 265.405 365.895 266.215 364.252H270.151C269.618 365.873 268.647 367.207 267.239 368.252C265.853 369.276 264.125 369.788 262.055 369.788C260.37 369.788 258.855 369.415 257.511 368.668C256.189 367.9 255.143 366.833 254.375 365.468C253.629 364.081 253.255 362.481 253.255 360.668C253.255 358.855 253.618 357.265 254.343 355.9C255.09 354.513 256.125 353.447 257.447 352.7C258.791 351.953 260.327 351.58 262.055 351.58C263.719 351.58 265.202 351.943 266.503 352.668C267.805 353.393 268.818 354.417 269.543 355.74C270.269 357.041 270.631 358.545 270.631 360.252ZM266.823 359.1C266.802 357.756 266.322 356.679 265.383 355.868C264.445 355.057 263.282 354.652 261.895 354.652C260.637 354.652 259.559 355.057 258.663 355.868C257.767 356.657 257.234 357.735 257.063 359.1H266.823ZM283.117 351.58C284.504 351.58 285.741 351.868 286.829 352.444C287.939 353.02 288.803 353.873 289.421 355.004C290.04 356.135 290.349 357.5 290.349 359.1V369.5H286.733V359.644C286.733 358.065 286.339 356.86 285.549 356.028C284.76 355.175 283.683 354.748 282.317 354.748C280.952 354.748 279.864 355.175 279.053 356.028C278.264 356.86 277.869 358.065 277.869 359.644V369.5H274.221V351.868H277.869V353.884C278.467 353.159 279.224 352.593 280.141 352.188C281.08 351.783 282.072 351.58 283.117 351.58ZM293.787 360.668C293.787 358.855 294.149 357.265 294.875 355.9C295.621 354.513 296.645 353.447 297.947 352.7C299.248 351.953 300.741 351.58 302.427 351.58C304.56 351.58 306.32 352.092 307.707 353.116C309.115 354.119 310.064 355.559 310.555 357.436H306.619C306.299 356.561 305.787 355.879 305.083 355.388C304.379 354.897 303.493 354.652 302.427 354.652C300.933 354.652 299.739 355.185 298.843 356.252C297.968 357.297 297.531 358.769 297.531 360.668C297.531 362.567 297.968 364.049 298.843 365.116C299.739 366.183 300.933 366.716 302.427 366.716C304.539 366.716 305.936 365.788 306.619 363.932H310.555C310.043 365.724 309.083 367.153 307.675 368.22C306.267 369.265 304.517 369.788 302.427 369.788C300.741 369.788 299.248 369.415 297.947 368.668C296.645 367.9 295.621 366.833 294.875 365.468C294.149 364.081 293.787 362.481 293.787 360.668ZM321.838 369.788C320.174 369.788 318.67 369.415 317.326 368.668C315.982 367.9 314.926 366.833 314.158 365.468C313.39 364.081 313.006 362.481 313.006 360.668C313.006 358.876 313.401 357.287 314.19 355.9C314.979 354.513 316.057 353.447 317.422 352.7C318.787 351.953 320.313 351.58 321.998 351.58C323.683 351.58 325.209 351.953 326.574 352.7C327.939 353.447 329.017 354.513 329.806 355.9C330.595 357.287 330.99 358.876 330.99 360.668C330.99 362.46 330.585 364.049 329.774 365.436C328.963 366.823 327.854 367.9 326.446 368.668C325.059 369.415 323.523 369.788 321.838 369.788ZM321.838 366.62C322.777 366.62 323.651 366.396 324.462 365.948C325.294 365.5 325.966 364.828 326.478 363.932C326.99 363.036 327.246 361.948 327.246 360.668C327.246 359.388 327.001 358.311 326.51 357.436C326.019 356.54 325.369 355.868 324.558 355.42C323.747 354.972 322.873 354.748 321.934 354.748C320.995 354.748 320.121 354.972 319.31 355.42C318.521 355.868 317.891 356.54 317.422 357.436C316.953 358.311 316.718 359.388 316.718 360.668C316.718 362.567 317.198 364.039 318.158 365.084C319.139 366.108 320.366 366.62 321.838 366.62ZM343.492 351.58C344.879 351.58 346.116 351.868 347.204 352.444C348.314 353.02 349.178 353.873 349.796 355.004C350.415 356.135 350.724 357.5 350.724 359.1V369.5H347.108V359.644C347.108 358.065 346.714 356.86 345.924 356.028C345.135 355.175 344.058 354.748 342.692 354.748C341.327 354.748 340.239 355.175 339.428 356.028C338.639 356.86 338.244 358.065 338.244 359.644V369.5H334.596V351.868H338.244V353.884C338.842 353.159 339.599 352.593 340.516 352.188C341.455 351.783 342.447 351.58 343.492 351.58ZM359.634 354.844V364.604C359.634 365.265 359.783 365.745 360.082 366.044C360.402 366.321 360.935 366.46 361.682 366.46H363.922V369.5H361.042C359.399 369.5 358.14 369.116 357.266 368.348C356.391 367.58 355.954 366.332 355.954 364.604V354.844H353.874V351.868H355.954V347.484H359.634V351.868H363.922V354.844H359.634ZM370.932 354.428C371.465 353.532 372.169 352.839 373.044 352.348C373.94 351.836 374.996 351.58 376.212 351.58V355.356H375.284C373.854 355.356 372.766 355.719 372.02 356.444C371.294 357.169 370.932 358.428 370.932 360.22V369.5H367.284V351.868H370.932V354.428ZM378.349 360.604C378.349 358.833 378.712 357.265 379.437 355.9C380.184 354.535 381.186 353.479 382.445 352.732C383.725 351.964 385.133 351.58 386.669 351.58C388.056 351.58 389.261 351.857 390.285 352.412C391.33 352.945 392.162 353.617 392.781 354.428V351.868H396.461V369.5H392.781V366.876C392.162 367.708 391.32 368.401 390.253 368.956C389.186 369.511 387.97 369.788 386.605 369.788C385.09 369.788 383.704 369.404 382.445 368.636C381.186 367.847 380.184 366.759 379.437 365.372C378.712 363.964 378.349 362.375 378.349 360.604ZM392.781 360.668C392.781 359.452 392.525 358.396 392.013 357.5C391.522 356.604 390.872 355.921 390.061 355.452C389.25 354.983 388.376 354.748 387.437 354.748C386.498 354.748 385.624 354.983 384.813 355.452C384.002 355.9 383.341 356.572 382.829 357.468C382.338 358.343 382.093 359.388 382.093 360.604C382.093 361.82 382.338 362.887 382.829 363.804C383.341 364.721 384.002 365.425 384.813 365.916C385.645 366.385 386.52 366.62 387.437 366.62C388.376 366.62 389.25 366.385 390.061 365.916C390.872 365.447 391.522 364.764 392.013 363.868C392.525 362.951 392.781 361.884 392.781 360.668ZM400.037 360.604C400.037 358.833 400.399 357.265 401.125 355.9C401.871 354.535 402.874 353.479 404.133 352.732C405.413 351.964 406.831 351.58 408.389 351.58C409.541 351.58 410.671 351.836 411.781 352.348C412.911 352.839 413.807 353.5 414.469 354.332V345.82H418.149V369.5H414.469V366.844C413.871 367.697 413.039 368.401 411.973 368.956C410.927 369.511 409.722 369.788 408.357 369.788C406.821 369.788 405.413 369.404 404.133 368.636C402.874 367.847 401.871 366.759 401.125 365.372C400.399 363.964 400.037 362.375 400.037 360.604ZM414.469 360.668C414.469 359.452 414.213 358.396 413.701 357.5C413.21 356.604 412.559 355.921 411.749 355.452C410.938 354.983 410.063 354.748 409.125 354.748C408.186 354.748 407.311 354.983 406.501 355.452C405.69 355.9 405.029 356.572 404.517 357.468C404.026 358.343 403.781 359.388 403.781 360.604C403.781 361.82 404.026 362.887 404.517 363.804C405.029 364.721 405.69 365.425 406.501 365.916C407.333 366.385 408.207 366.62 409.125 366.62C410.063 366.62 410.938 366.385 411.749 365.916C412.559 365.447 413.21 364.764 413.701 363.868C414.213 362.951 414.469 361.884 414.469 360.668ZM421.724 360.604C421.724 358.833 422.087 357.265 422.812 355.9C423.559 354.535 424.561 353.479 425.82 352.732C427.1 351.964 428.508 351.58 430.044 351.58C431.431 351.58 432.636 351.857 433.66 352.412C434.705 352.945 435.537 353.617 436.156 354.428V351.868H439.836V369.5H436.156V366.876C435.537 367.708 434.695 368.401 433.628 368.956C432.561 369.511 431.345 369.788 429.98 369.788C428.465 369.788 427.079 369.404 425.82 368.636C424.561 367.847 423.559 366.759 422.812 365.372C422.087 363.964 421.724 362.375 421.724 360.604ZM436.156 360.668C436.156 359.452 435.9 358.396 435.388 357.5C434.897 356.604 434.247 355.921 433.436 355.452C432.625 354.983 431.751 354.748 430.812 354.748C429.873 354.748 428.999 354.983 428.188 355.452C427.377 355.9 426.716 356.572 426.204 357.468C425.713 358.343 425.468 359.388 425.468 360.604C425.468 361.82 425.713 362.887 426.204 363.804C426.716 364.721 427.377 365.425 428.188 365.916C429.02 366.385 429.895 366.62 430.812 366.62C431.751 366.62 432.625 366.385 433.436 365.916C434.247 365.447 434.897 364.764 435.388 363.868C435.9 362.951 436.156 361.884 436.156 360.668ZM449.204 347.26L448.788 362.78H445.748L445.332 347.26H449.204ZM447.38 369.724C446.718 369.724 446.164 369.5 445.716 369.052C445.268 368.604 445.044 368.049 445.044 367.388C445.044 366.727 445.268 366.172 445.716 365.724C446.164 365.276 446.718 365.052 447.38 365.052C448.02 365.052 448.564 365.276 449.012 365.724C449.46 366.172 449.684 366.727 449.684 367.388C449.684 368.049 449.46 368.604 449.012 369.052C448.564 369.5 448.02 369.724 447.38 369.724Z" fill="#82F3FF"/>
<path fill-rule="evenodd" clip-rule="evenodd" d="M649.368 160.343L649.698 155.144C648.377 155.988 648.126 156.689 647.26 158.174C646.638 159.241 646.094 160.055 645.443 160.997C641.74 166.337 635.495 171.838 627.836 170.44C621.894 169.356 619.272 166.819 616.089 163.224C612.864 159.583 611.109 156.808 608.528 152.4C607.207 150.145 606.26 148.493 605.138 146.068C604.116 143.862 603.134 142.531 602.046 140.143L596.993 126.696C595.142 120.136 592.111 112.594 590.313 105.502C589.37 101.782 589.264 100.715 591.8 98.7884L588.38 98.4594L604.082 96.953L613.136 111.124C615.634 114.322 616.734 116.773 619.17 120.404L627.551 134.651C629.093 132.268 628.762 130.659 629.367 127.602C629.989 124.458 630.827 123.185 631.276 120.474C632.023 115.965 633.217 109.578 634.449 105.699C636.906 97.9653 635.518 100.961 639.026 92.4371C639.756 90.6629 641.339 88.0906 642.221 86.3667C642.742 85.3501 643.411 84.3159 644.038 83.6283C644.123 83.5354 644.786 82.886 645.097 82.6149L646.069 81.8355C646.126 81.6442 646.298 81.6529 646.417 81.5688C645.211 96.3332 645.046 107.209 646.577 121.888C647.383 129.635 652.268 154.74 649.37 160.342L649.368 160.343Z" fill="#065E7C"/>
<path d="M576.161 101.692C602.548 101.692 623.938 96.7198 623.938 90.5864C623.938 84.4529 602.548 79.4808 576.161 79.4808C549.774 79.4808 528.384 84.4529 528.384 90.5864C528.384 96.7198 549.774 101.692 576.161 101.692Z" fill="#7C7C8A"/>
<path fill-rule="evenodd" clip-rule="evenodd" d="M720.754 182.5C722.065 183.177 721.494 182.143 722.155 184.219C722.316 184.721 722.359 185.774 722.325 186.373C722.206 188.496 721.58 188.197 722.646 190.6L722.97 192.563C721.131 192.241 719.724 192.538 718.062 193.076L719.871 210.013C720.943 217.615 721.481 265.375 720.108 267.53C715.832 270.535 698.963 271.485 691.804 271.662L691.401 272.758L690.274 271.61L683.583 272.666C683.403 273.034 683.313 273.382 683.113 273.812L682.684 271.663C677.486 271.531 671.564 271.523 666.533 270.857C661.055 270.132 655.179 270.4 650.243 269.551C648.761 269.072 644.985 268.685 642.816 268.484C641.003 258.728 643.427 235.267 644.159 224.362C645.096 210.358 646.714 196.348 647.606 182.364C648.941 182.062 647.954 182.235 649.144 182.639C652.893 183.915 651.137 183.299 655.429 183.963C665.457 185.513 673.831 185.87 684.156 185.712C690.938 185.608 696.513 185.235 703.223 184.554C707.804 184.09 716.715 182.084 720.754 182.499V182.5Z" fill="#AB222E"/>
<path fill-rule="evenodd" clip-rule="evenodd" d="M709.067 81.8552C708.638 83.8273 708.374 83.4534 707.35 85.2178L703 95.1602C700.94 100.565 699.26 105.255 700.725 111.76C702.125 117.978 706.991 126 711.029 130.522C714.903 134.86 712.615 131.759 714.176 137.151C713.687 143.262 716.043 156.44 716.83 163.029C717.72 168.39 719.14 178.239 720.754 182.501C716.714 182.086 707.804 184.092 703.223 184.557C696.514 185.238 690.938 185.61 684.156 185.714C673.831 185.873 665.457 185.515 655.429 183.965C651.137 183.303 652.894 183.917 649.144 182.641C647.954 182.236 648.941 182.063 647.606 182.366L649.37 160.344C652.268 154.743 647.383 129.637 646.577 121.89C645.046 107.21 645.211 96.3343 646.417 81.571C647.571 79.7246 650.685 77.9405 653.363 77.8279C655.806 81.5054 659.105 89.972 661.15 94.7022C662.627 98.1183 667.046 109.453 668.858 111.361C670.574 110.013 674.565 104.723 676.325 102.629C678.971 99.4815 680.968 96.9858 683.643 93.6319C686.579 89.949 697.059 77.324 697.782 75.5705C702.227 77.0354 706.405 79.0851 709.067 81.8563V81.8552Z" fill="#82F3FF"/>
<path fill-rule="evenodd" clip-rule="evenodd" d="M722.491 378.704C718.444 381.344 712.757 382.431 707.041 381.081C702.183 381.261 702.582 374.48 702.223 370.095C701.844 365.481 701.454 360.848 701.051 356.235C699.82 342.169 690.374 277.275 691.402 272.758L691.806 271.662C698.965 271.485 715.834 270.535 720.109 267.53C721.482 265.375 720.944 217.615 719.872 210.013L718.064 193.076C719.725 192.538 721.132 192.241 722.971 192.563C727.64 205.222 727.228 244.816 726.091 261.009C725.575 268.355 724.409 276.197 724.093 283.357C723.119 305.451 723.238 344.057 723.764 367.974C723.937 375.913 725.242 376.023 722.492 378.703L722.491 378.704ZM683.114 273.813C683.784 276.395 680.319 337.78 679.647 349.122C679.049 359.218 680.469 368.498 674.457 369.796C674.328 369.862 674.141 369.829 674.078 370.008L672.987 370.593C669.557 372.307 662.986 373.491 659.732 372.711C656.83 372.017 660.818 373.21 658.867 372.424C658.722 372.365 658.589 372.285 658.461 372.225L657.687 371.747C654.748 370.282 655.351 364.846 655.073 360.859C652.976 330.713 652.27 299.482 650.242 269.551C655.178 270.4 661.054 270.132 666.532 270.857C671.563 271.523 677.486 271.532 682.683 271.663L683.112 273.812L683.114 273.813Z" fill="#750310"/>
<path fill-rule="evenodd" clip-rule="evenodd" d="M722.646 190.601C721.58 188.197 722.206 188.496 722.325 186.375C722.359 185.776 722.316 184.722 722.155 184.22C721.494 182.144 722.064 183.177 720.754 182.501C719.14 178.239 717.72 168.39 716.831 163.029L717.934 165.291C719.535 160.842 721.601 153.962 722.769 149.033C724.042 143.657 717.35 141.888 714.725 136.014L714.176 137.151C712.615 131.759 714.903 134.861 711.029 130.522C706.99 126 702.125 117.978 700.725 111.76C699.26 105.256 700.94 100.565 703 95.1602L707.351 85.2178C708.374 83.4534 708.637 83.8273 709.067 81.8552C716.12 88.3607 712.388 84.8199 716.627 90.2453C725.675 101.823 736.545 118.348 742.398 131.294C743.544 133.83 744.849 136.448 744.581 140.052C744.239 144.654 742.126 152.46 740.568 156.601C740.081 157.893 739.868 159.231 739.352 160.56C738.845 161.868 738.234 162.577 737.665 163.869C731.74 177.338 733.057 174.28 727.134 184.57C725.826 186.842 725.119 188.547 723.383 190.072L722.646 190.6V190.601Z" fill="#065E7C"/>
<path fill-rule="evenodd" clip-rule="evenodd" d="M610.719 44.8075C608.21 44.742 609.732 44.566 609.214 45.4886C610.644 47.0212 611.546 49.4885 611.583 51.9263C602.443 61.1964 544.226 58.951 540.643 52.1209C539.892 49.8143 541.662 46.8715 542.683 45.2197L541.799 44.8731L542.425 44.3462C544.857 42.2211 545.05 40.8033 547.919 37.6232C553.415 31.531 564.475 23.8995 573.611 24.7872C574.057 21.2562 572.126 17.3427 577.762 19.1628C578.901 21.9056 577.633 21.8597 578.346 24.8757C588.355 24.9358 598.184 31.2675 604.12 38.2201L610.72 44.8065L610.719 44.8075Z" fill="#C4C4CC"/>
<path fill-rule="evenodd" clip-rule="evenodd" d="M687.941 54.4078C687.555 52.8402 687.366 51.6934 688.019 50.0646C688.878 47.9209 688.901 49.0567 690.775 47.7132C692.428 46.5282 693.937 43.9855 693.668 40.73C693.408 37.5773 689.308 32.3836 684.774 40.6972C683.325 43.3547 685.762 39.2542 684.389 41.3717C683.819 42.2517 684.135 41.8407 683.645 42.3195C681.26 38.2944 686.588 22.6763 678.703 20.0986C673.086 18.262 660.3 24.2318 654.974 23.2939C646.913 12.6934 652.647 6.7673 663.395 3.01116C680.25 -2.87886 691.262 3.33802 697.48 17.5821C699.489 22.1843 700.554 26.5461 700.519 31.9278C700.448 42.7163 696.811 45.3858 692.668 50.6462C691.466 52.1723 690.672 53.9334 687.94 54.4078H687.941Z" fill="url(#paint0_linear_4263_1347)"/>
<path fill-rule="evenodd" clip-rule="evenodd" d="M687.941 54.4078C686.507 56.2039 684.806 57.9836 684.671 60.4563C684.552 62.6569 684.671 66.8678 685.176 68.6475L688.988 70.4632C690.089 71.2569 690.792 72.3096 691.813 72.971C690.96 72.3326 688.44 69.1339 686.195 69.1613C684.12 69.9702 685.684 69.3569 683.963 70.5135C682.976 71.1771 682.656 71.3968 681.712 71.8625C679.24 73.0814 678.811 72.6233 679.559 75.4787C672.957 76.5293 672.438 78.5604 666.04 75.5235C665.656 73.7274 666.667 74.9758 664.357 73.6848C663.572 73.2464 662.684 72.8901 661.954 72.5654L661.425 70.4982L661.691 68.3151C664.594 67.9063 666.242 69.6106 670.258 68.9557C673.472 68.431 677.304 65.9462 679.304 63.796C679.865 63.1925 684.358 55.9743 684.799 54.2012C681.624 55.1676 683.851 55.1686 681.605 56.7734C679.667 54.5434 680.099 50.3773 680.338 47.0486C676.317 46.5555 672.598 45.106 667.85 44.6796C662.646 44.2118 658.033 44.6534 652.941 44.6337C653.385 36.8744 653.87 30.4717 654.974 23.295C660.299 24.2329 673.086 18.2631 678.703 20.0996C686.588 22.6773 681.26 38.2944 683.645 42.3206C684.134 41.8407 683.819 42.2528 684.389 41.3728C685.761 39.2553 683.325 43.3558 684.774 40.6983C689.307 32.3847 693.408 37.5784 693.668 40.7311C693.937 43.9866 692.427 46.5293 690.775 47.7143C688.9 49.0578 688.877 47.9231 688.019 50.0657C687.366 51.6945 687.555 52.8413 687.941 54.4089V54.4078Z" fill="#FCB3A2"/>
<path fill-rule="evenodd" clip-rule="evenodd" d="M704.542 386.106C707.918 385.477 703.467 385.92 704.65 390.824C708.082 391.304 712.424 389.313 714.47 388.152C718.87 385.656 720.9 383.525 722.739 384.109C723.677 384.835 723.725 385.181 723.962 387.862C724.49 393.811 724.869 397.595 721.669 399.896C718.659 402.06 717.553 401.534 714.835 402.812C713.512 403.433 711.134 405.443 709.394 406.485C696.053 414.474 662.529 416.588 690.836 396.063C697.192 391.454 698.11 391.818 704.543 386.107L704.542 386.106Z" fill="#76797B"/>
<path fill-rule="evenodd" clip-rule="evenodd" d="M691.813 72.9699C694.097 73.8925 695.346 74.7222 697.782 75.5694C697.06 77.324 686.579 89.9479 683.643 93.6308C680.969 96.9847 678.971 99.4804 676.325 102.628C674.564 104.722 670.574 110.012 668.858 111.36C667.047 109.451 662.627 98.1172 661.15 94.7011C659.106 89.9709 655.805 81.5043 653.363 77.8268C656.597 77.1873 655.284 75.998 657.351 73.9646C658.626 72.7108 659.999 72.0188 661.427 70.4982L661.956 72.5654C662.685 72.889 663.572 73.2453 664.358 73.6848C666.668 74.9758 665.657 73.7274 666.042 75.5235C658.207 72.1259 659.325 74.4391 659.357 79.9585C659.371 82.416 658.015 89.9479 666.349 85.4736C669.156 83.9661 668.069 82.8653 671.92 83.1888C676.964 83.613 673.812 88.4361 683.729 85.9917C683.957 75.0371 685.159 74.7813 679.561 75.4787C678.813 72.6233 679.243 73.0814 681.715 71.8625C682.658 71.3968 682.978 71.1771 683.966 70.5135C685.685 69.3569 684.122 69.9702 686.198 69.1612C688.442 69.1339 690.963 72.3336 691.816 72.971L691.813 72.9699Z" fill="#065E7C"/>
<path fill-rule="evenodd" clip-rule="evenodd" d="M656.436 373.564C657.46 376.822 655.794 375.205 656.288 377.587C656.495 378.58 657.379 379.093 658.386 379.416C667.9 382.469 671.223 375.311 674.28 371.392C675.434 372.185 674.803 371.474 675.397 372.722L675.982 377.661C676.313 390.97 675.391 383.352 666.181 390.809C663.096 393.306 661.05 394.538 657.048 396.489C642.947 403.364 619.953 404.284 643.616 385.062C650.921 379.128 651.598 381.114 656.436 373.564Z" fill="#76797B"/>
<path fill-rule="evenodd" clip-rule="evenodd" d="M661.692 68.3151C661.007 66.7147 660.942 67.2263 659.217 66.0162C651.345 60.4935 652.802 51.1217 652.942 44.6337C658.034 44.6534 662.647 44.2129 667.851 44.6796C672.599 45.106 676.318 46.5555 680.339 47.0485C680.099 50.3762 679.668 54.5433 681.606 56.7734C683.853 55.1697 681.625 55.1675 684.8 54.2012C684.359 55.9743 679.866 63.1914 679.305 63.796C677.306 65.9462 673.473 68.4321 670.259 68.9557C666.244 69.6105 664.595 67.9052 661.692 68.3151Z" fill="#FFFAF1"/>
<path fill-rule="evenodd" clip-rule="evenodd" d="M666.04 75.5235C672.438 78.5593 672.957 76.5292 679.559 75.4787C685.156 74.7813 683.954 75.0371 683.727 85.9918C673.81 88.4361 676.962 83.6141 671.917 83.1889C668.066 82.8642 669.155 83.965 666.346 85.4736C658.012 89.9479 659.369 82.416 659.355 79.9585C659.322 74.4391 658.204 72.127 666.039 75.5235H666.04Z" fill="#AB222E"/>
<path fill-rule="evenodd" clip-rule="evenodd" d="M722.739 384.109C720.9 383.525 718.869 385.656 714.47 388.152C712.424 389.313 708.082 391.304 704.65 390.824C703.466 385.92 707.919 385.477 704.542 386.106L705.311 385.108C705.382 385.013 705.479 384.896 705.55 384.799C705.853 384.385 705.789 384.588 706.181 383.899C706.827 382.761 706.876 382.384 707.041 381.081C712.757 382.431 718.444 381.344 722.491 378.704L722.739 384.109ZM674.28 371.392C671.223 375.311 667.9 382.469 658.386 379.416C657.379 379.093 656.495 378.58 656.288 377.587C655.794 375.205 657.46 376.822 656.436 373.564L657.688 371.748L658.462 372.226C658.589 372.286 658.722 372.366 658.868 372.425C660.818 373.211 656.83 372.018 659.733 372.713C662.988 373.492 669.558 372.308 672.988 370.594L674.079 370.009C674.142 369.83 674.329 369.863 674.458 369.797L674.281 371.392H674.28Z" fill="#4D585E"/>
<path d="M545.215 87.7085V83.8335L554.931 68.5266H558.272V73.8903H556.294L550.169 83.5835V83.7653H563.976V87.7085H545.215ZM556.385 91.7994V86.5266L556.476 84.8107V68.5266H561.09V91.7994H556.385ZM576.38 92.3107C574.425 92.3032 572.743 91.8221 571.334 90.8676C569.933 89.913 568.853 88.5304 568.095 86.7198C567.345 84.9092 566.974 82.7312 566.982 80.1857C566.982 77.6479 567.357 75.485 568.107 73.6971C568.864 71.9092 569.944 70.5494 571.345 69.6176C572.755 68.6782 574.433 68.2085 576.38 68.2085C578.326 68.2085 580.001 68.6782 581.402 69.6176C582.811 70.557 583.895 71.9206 584.652 73.7085C585.41 75.4888 585.785 77.6479 585.777 80.1857C585.777 82.7388 585.398 84.9206 584.641 86.7312C583.891 88.5418 582.815 89.9244 581.414 90.8789C580.012 91.8335 578.334 92.3107 576.38 92.3107ZM576.38 88.2312C577.713 88.2312 578.777 87.5607 579.573 86.2198C580.368 84.8789 580.762 82.8676 580.755 80.1857C580.755 78.4206 580.573 76.9509 580.209 75.7766C579.853 74.6024 579.345 73.7198 578.686 73.1289C578.035 72.538 577.266 72.2426 576.38 72.2426C575.054 72.2426 573.993 72.9054 573.198 74.2312C572.402 75.557 572.001 77.5418 571.993 80.1857C571.993 81.9736 572.171 83.466 572.527 84.663C572.891 85.8524 573.402 86.7463 574.061 87.3448C574.72 87.9357 575.493 88.2312 576.38 88.2312ZM588.934 87.7085V83.8335L598.649 68.5266H601.99V73.8903H600.013L593.888 83.5835V83.7653H607.695V87.7085H588.934ZM600.104 91.7994V86.5266L600.195 84.8107V68.5266H604.809V91.7994H600.104Z" fill="#AB222E"/>
<defs>
<linearGradient id="paint0_linear_4263_1347" x1="675.852" y1="0.799377" x2="675.852" y2="54.4078" gradientUnits="userSpaceOnUse">
<stop stop-color="#091E26"/>
<stop offset="1" stop-color="#00131C"/>
</linearGradient>
</defs>
</svg>
